<svg width="30" height="30" viewBox="0 0 19 22" fill="none" xmlns="http://www.w3.org/2000/svg">
<path d="M18.4487 17.8495V18.8495H0.44873V17.8495L2.44873 15.8495V9.84947C2.44873 6.74947 4.47873 4.01947 7.44873 3.13947C7.44873 3.03947 7.44873 2.94947 7.44873 2.84947C7.44873 2.31904 7.65944 1.81033 8.03452 1.43526C8.40959 1.06019 8.9183 0.849472 9.44873 0.849472C9.97916 0.849472 10.4879 1.06019 10.8629 1.43526C11.238 1.81033 11.4487 2.31904 11.4487 2.84947C11.4487 2.94947 11.4487 3.03947 11.4487 3.13947C14.4187 4.01947 16.4487 6.74947 16.4487 9.84947V15.8495L18.4487 17.8495ZM11.4487 19.8495C11.4487 20.3799 11.238 20.8886 10.8629 21.2637C10.4879 21.6388 9.97916 21.8495 9.44873 21.8495C8.9183 21.8495 8.40959 21.6388 8.03452 21.2637C7.65944 20.8886 7.44873 20.3799 7.44873 19.8495" fill="#4CDAD3"/>
</svg>
