<svg width="23" height="19" viewBox="0 0 23 19" fill="none" xmlns="http://www.w3.org/2000/svg">
<path d="M1.6958 1.40354L2.9758 0.133545L19.6958 16.8535L18.4258 18.1335L15.3458 15.0535C14.1958 15.4335 12.9758 15.6335 11.6958 15.6335C6.6958 15.6335 2.4258 12.5235 0.695801 8.13354C1.3858 6.37354 2.4858 4.82354 3.8858 3.59354L1.6958 1.40354ZM11.6958 5.13354C12.4915 5.13354 13.2545 5.44962 13.8171 6.01222C14.3797 6.57483 14.6958 7.3379 14.6958 8.13354C14.6958 8.48354 14.6358 8.82354 14.5258 9.13354L10.6958 5.30354C11.0058 5.19354 11.3458 5.13354 11.6958 5.13354ZM11.6958 0.633545C16.6958 0.633545 20.9658 3.74355 22.6958 8.13354C21.8758 10.2135 20.4858 12.0135 18.6958 13.3235L17.2758 11.8935C18.6358 10.9535 19.7558 9.67354 20.5158 8.13354C18.8658 4.77355 15.4558 2.63354 11.6958 2.63354C10.6058 2.63354 9.5358 2.81354 8.5358 3.13354L6.9958 1.60354C8.4358 0.983545 10.0258 0.633545 11.6958 0.633545ZM2.8758 8.13354C4.5258 11.4935 7.9358 13.6335 11.6958 13.6335C12.3858 13.6335 13.0658 13.5635 13.6958 13.4235L11.4158 11.1335C9.9858 10.9835 8.8458 9.84354 8.6958 8.41354L5.2958 5.00354C4.3058 5.85354 3.4758 6.91354 2.8758 8.13354Z" fill="#4CDAD3"/>
</svg>
