<svg version="1.0" xmlns="http://www.w3.org/2000/svg" width="20" height="20" viewBox="0 0 100.000000 92.000000" preserveAspectRatio="xMidYMid meet">
<g transform="translate(0.000000,92.000000) scale(0.100000,-0.100000)" fill="#000000" stroke="none">
<path d="M371 895 c-147 -33 -271 -122 -326 -232 -24 -49 -29 -71 -29 -138 -1 -65 3 -89 24 -130 30 -61 100 -138 156 -171 l42 -25 -24 -87 c-13 -48 -24 -90 -24 -94 0 -17 21 -6 113 57 l95 65 109 4 c132 4 216 29 305 89 274 184 205 536 -127 646 -89 29 -226 36 -314 16z"/>
</g>
</svg>
