<svg width="460" height="52" viewBox="0 0 460 52" fill="none" xmlns="http://www.w3.org/2000/svg">
<path d="M27.001 33.7266L31.9326 33.2627C33.3812 33.2627 34.1055 33.6533 34.1055 34.4346C34.1055 35.1995 33.6335 35.8669 32.6895 36.4365C30.3783 37.82 27.9043 38.7559 25.2676 39.2441C22.6309 39.7324 20.0592 39.9766 17.5527 39.9766C15.0625 39.9766 13.2803 39.9277 12.2061 39.8301C11.1481 39.7487 10.0902 39.5697 9.03223 39.293C7.99056 39.0163 7.13607 38.6419 6.46875 38.1699C5.02018 37.1283 4.2959 35.5251 4.2959 33.3604C4.2959 29.6006 6.56641 24.8724 11.1074 19.1758C14.5417 14.8789 17.4551 12.3724 19.8477 11.6562C21.1009 11.2819 22.5576 11.0947 24.2178 11.0947C25.8942 11.0947 26.7324 11.7295 26.7324 12.999C26.7324 13.4222 26.6104 13.9268 26.3662 14.5127C25.4385 16.417 24.6247 18.6712 23.9248 21.2754C23.2249 23.8633 22.875 26.1908 22.875 28.2578C22.875 31.9036 24.2503 33.7266 27.001 33.7266ZM2.2207 13.6338C1.39062 13.6338 0.975586 13.1536 0.975586 12.1934C0.975586 11.1354 1.29297 9.68685 1.92773 7.84766C3.16471 4.34831 4.49121 2.40332 5.90723 2.0127C6.29785 1.86621 7.47786 1.79297 9.44727 1.79297L25.9512 2.18359C26.765 2.18359 29.1331 1.93945 33.0557 1.45117C36.9945 0.962891 39.0615 0.71875 39.2568 0.71875C41.3564 0.71875 42.4062 1.4349 42.4062 2.86719C42.4062 3.50195 42.1784 4.51107 41.7227 5.89453C41.2832 7.26172 40.6973 8.55566 39.9648 9.77637C39.2324 10.9971 38.557 11.6074 37.9385 11.6074C37.5641 11.6074 36.7178 11.3063 35.3994 10.7041C31.4118 8.88118 28.1973 7.96973 25.7559 7.96973C23.3145 7.96973 20.4906 8.20573 17.2842 8.67773C14.0778 9.14974 11.6934 9.71126 10.1309 10.3623C8.56836 10.9971 7.20117 11.583 6.0293 12.1201C3.84831 13.1292 2.57878 13.6338 2.2207 13.6338ZM47.8262 13.8779L59.3984 13.6094C59.8216 13.6094 60.139 13.7396 60.3506 14C60.5622 14.2441 60.668 14.472 60.668 14.6836C60.668 14.8952 60.611 15.2451 60.4971 15.7334C60.3831 16.2217 60.2367 16.8158 60.0576 17.5156C59.8786 18.1992 59.7646 18.6387 59.7158 18.834C60.9854 17.3203 62.5723 15.9857 64.4766 14.8301C66.3809 13.6745 68.0573 13.0967 69.5059 13.0967C72.582 13.0967 74.1201 13.764 74.1201 15.0986C74.1201 16.417 73.7051 18.0039 72.875 19.8594C72.0449 21.6986 71.2637 22.9111 70.5312 23.4971C70.1732 23.7575 69.7337 23.8877 69.2129 23.8877C68.7083 23.8877 68.2363 23.7249 67.7969 23.3994C65.8275 21.9346 63.679 21.2021 61.3516 21.2021C60.4564 21.2021 59.6751 21.2673 59.0078 21.3975C58.373 23.5785 57.3639 26.7848 55.9805 31.0166C54.597 35.2321 53.832 37.584 53.6855 38.0723C53.4414 38.8372 52.9857 39.2197 52.3184 39.2197C49.9583 39.2197 47.4274 39.3418 44.7256 39.5859C42.0238 39.8464 40.4694 39.9766 40.0625 39.9766C39.6719 39.9766 39.3626 39.8626 39.1348 39.6348C38.9232 39.4232 38.8174 39.1709 38.8174 38.8779C38.8174 38.5687 39.1592 37.4782 39.8428 35.6064C40.5426 33.7184 41.3076 31.6921 42.1377 29.5273C42.984 27.3626 43.749 24.9863 44.4326 22.3984C45.1325 19.8105 45.4824 17.6865 45.4824 16.0264L45.458 15.0986C45.458 14.2848 46.2474 13.8779 47.8262 13.8779ZM91.0146 33.7754C94.0745 33.7754 96.6299 31.4316 98.6807 26.7441C99.6247 24.5957 100.097 22.8542 100.097 21.5195C100.097 20.1849 99.8688 19.2653 99.4131 18.7607C98.9736 18.2562 98.0947 18.0039 96.7764 18.0039C95.4743 18.0039 94.0583 18.6143 92.5283 19.835C91.0146 21.0394 89.7939 22.5612 88.8662 24.4004C87.9385 26.2396 87.4746 27.8997 87.4746 29.3809C87.4746 30.8457 87.8001 31.9443 88.4512 32.6768C89.1022 33.4092 89.9567 33.7754 91.0146 33.7754ZM103.71 13.0967L114.892 13.6094C115.315 13.6094 115.632 13.7396 115.844 14C116.055 14.2441 116.161 14.5208 116.161 14.8301C116.161 16.0182 115.665 17.9144 114.672 20.5186C113.695 23.1064 112.711 25.6781 111.718 28.2334C110.741 30.7725 110.253 32.457 110.253 33.2871C110.253 34.1009 110.375 34.6217 110.619 34.8496C110.88 35.0775 111.368 35.1914 112.084 35.1914C112.8 35.1914 114.102 34.8496 115.99 34.166C117.895 33.4661 119.18 32.9372 119.848 32.5791C120.531 32.221 121.052 32.042 121.41 32.042C122.045 32.042 122.362 32.3268 122.362 32.8965C122.362 34.1009 119.921 35.6797 115.038 37.6328C113.394 38.3001 111.409 38.8535 109.081 39.293C106.77 39.7487 104.418 39.9766 102.025 39.9766C98.0378 39.9766 95.637 38.707 94.8232 36.168C92.2842 38.707 88.8662 39.9766 84.5693 39.9766C81.6234 39.9766 79.1331 39.2686 77.0986 37.8525C74.8851 36.3063 73.7783 33.873 73.7783 30.5527C73.7783 27.0534 74.8118 23.8307 76.8789 20.8848C79.1413 17.6133 82.1686 15.359 85.9609 14.1221C88.0605 13.4385 90.3148 13.0967 92.7236 13.0967C96.4183 13.0967 99.291 14.0081 101.342 15.8311C101.358 15.7334 101.366 15.5788 101.366 15.3672L101.342 14.3174C101.342 13.5036 102.131 13.0967 103.71 13.0967ZM125.951 13.8779L138.866 13.6094C139.403 13.6094 139.672 13.9674 139.672 14.6836C139.672 15.0742 139.525 15.4648 139.232 15.8555C137.784 17.7272 136.612 19.8512 135.717 22.2275C134.838 24.6038 134.398 26.9232 134.398 29.1855C134.398 30.3574 134.643 31.3828 135.131 32.2617C135.619 33.1406 136.213 33.5801 136.913 33.5801C138.166 33.5801 139.59 32.5384 141.186 30.4551C142.797 28.3717 144.205 25.9303 145.409 23.1309C146.63 20.3314 147.419 17.8249 147.777 15.6113C147.875 15.0091 148.021 14.5859 148.217 14.3418C148.412 14.0977 148.811 13.9756 149.413 13.9756L158.959 13.707C159.545 13.707 159.838 13.9349 159.838 14.3906V14.7324C159.838 16.7181 159.032 19.1758 157.421 22.1055C157.909 22.1868 158.495 22.2275 159.179 22.2275C161.734 22.2275 164.062 21.6416 166.161 20.4697C166.617 20.2093 166.999 20.0791 167.309 20.0791C167.96 20.0791 168.285 20.3802 168.285 20.9824C168.285 21.5684 167.935 22.1299 167.235 22.667C164.892 24.4574 161.734 25.3525 157.763 25.3525C156.835 25.3525 156.078 25.3037 155.492 25.2061C155.378 25.4014 155.191 25.6781 154.931 26.0361C153.205 28.445 150.715 30.8132 147.46 33.1406C144.221 35.4681 140.974 37.3236 137.719 38.707C134.464 40.0905 131.802 40.7822 129.735 40.7822C128.222 40.7822 126.667 40.2207 125.072 39.0977C121.882 36.8678 120.287 33.4499 120.287 28.8438C120.287 26.8743 120.653 24.5306 121.386 21.8125C122.134 19.0944 122.973 16.9134 123.9 15.2695C124.421 14.3581 125.105 13.8942 125.951 13.8779ZM200.707 32.042C201.277 32.042 201.562 32.3105 201.562 32.8477C201.562 33.3685 201.171 33.8568 200.39 34.3125C199.625 34.752 198.673 35.2321 197.533 35.7529C196.394 36.2575 194.823 36.8597 192.821 37.5596C188.215 39.1709 183.015 39.9766 177.221 39.9766C166.218 39.9766 160.717 36.5911 160.717 29.8203C160.717 26.5163 161.758 23.5866 163.842 21.0312C165.941 18.4596 168.749 16.4984 172.265 15.1475C175.78 13.7803 179.613 13.0967 183.764 13.0967C187.914 13.0967 190.95 13.7396 192.87 15.0254C194.807 16.3112 195.775 18.0771 195.775 20.3232C195.775 22.6344 194.848 24.5225 192.992 25.9873C191.153 27.4521 188.703 28.5426 185.644 29.2588C182.567 29.9749 179.044 30.4795 175.072 30.7725C175.333 33.2952 177.139 34.8659 180.492 35.4844C181.355 35.6309 182.266 35.7041 183.227 35.7041C187.035 35.7041 192.528 34.5566 199.706 32.2617C200.146 32.1152 200.479 32.042 200.707 32.042ZM175.097 28.0869C177.929 27.3057 180.167 26.1094 181.811 24.498C183.454 22.8867 184.276 20.9417 184.276 18.6631C184.276 18.0609 184.081 17.5807 183.69 17.2227C183.3 16.8646 182.706 16.6855 181.908 16.6855C181.127 16.6855 180.305 17.0273 179.442 17.7109C178.596 18.3945 177.88 19.2897 177.294 20.3965C176.057 22.6914 175.325 25.2549 175.097 28.0869ZM209.838 3.03809L221.801 2.76953C222.224 2.76953 222.541 2.89974 222.753 3.16016C222.965 3.4043 223.07 3.68099 223.07 3.99023C223.07 5.69922 221.508 10.6309 218.383 18.7852C215.274 26.9395 213.72 31.7409 213.72 33.1895C213.72 33.7917 213.842 34.2474 214.086 34.5566C214.33 34.8496 214.761 34.9961 215.38 34.9961C217.317 34.9961 220.32 34.1009 224.389 32.3105C224.796 32.1315 225.186 32.042 225.561 32.042C226.228 32.042 226.562 32.3024 226.562 32.8232C226.562 33.2627 226.228 33.7184 225.561 34.1904C224.893 34.6624 223.974 35.1833 222.802 35.7529C221.63 36.3226 220.206 36.9411 218.529 37.6084C216.853 38.2757 214.949 38.8372 212.816 39.293C210.701 39.7487 208.479 39.9766 206.151 39.9766C203.824 39.9766 201.96 39.6592 200.561 39.0244C199.161 38.4059 198.461 37.2585 198.461 35.582C198.461 34.4102 199.966 29.8122 202.978 21.7881C204.101 18.7933 205.134 15.6846 206.078 12.4619C207.022 9.22298 207.494 6.79785 207.494 5.18652L207.47 4.25879C207.47 3.44499 208.259 3.03809 209.838 3.03809ZM253.271 39.9766C248.502 39.9766 244.123 39.1302 240.136 37.4375C239.306 38.2676 238.272 38.8128 237.035 39.0732C235.814 39.3499 234.179 39.4883 232.128 39.4883C230.093 39.4883 228.116 39.2523 226.195 38.7803C224.275 38.3083 222.753 37.7305 221.63 37.0469C220.491 36.3633 219.921 35.696 219.921 35.0449C219.921 34.6706 220.084 34.3695 220.409 34.1416C220.735 33.9137 221.109 33.7998 221.532 33.7998C223.03 33.7998 224.136 33.5638 224.853 33.0918C225.585 32.6035 226.285 31.7083 226.952 30.4062C227.636 29.1042 228.295 27.6068 228.93 25.9141C229.564 24.2051 230.15 22.61 230.688 21.1289C231.241 19.6478 231.859 18.1504 232.543 16.6367C234.057 13.3327 235.953 11.1354 238.231 10.0449C239.322 9.52409 240.746 9.12533 242.504 8.84863C244.262 8.55566 245.637 8.40918 246.63 8.40918C247.639 8.40918 248.29 8.42546 248.583 8.45801C248.892 8.47428 249.201 8.52311 249.511 8.60449C250.129 8.76725 250.438 9.10905 250.438 9.62988C250.438 9.98796 250.365 10.3216 250.219 10.6309C250.089 10.9238 249.722 11.5586 249.12 12.5352C248.518 13.5117 247.72 15.5544 246.728 18.6631C250.699 18.4189 253.734 17.597 255.834 16.1973C257.934 14.7812 258.983 12.9746 258.983 10.7773C258.983 7.79883 256.461 6.10612 251.415 5.69922C250.39 5.61784 248.892 5.57715 246.923 5.57715C244.953 5.57715 242.764 5.81315 240.355 6.28516C237.947 6.74089 236.059 7.24544 234.691 7.79883C233.34 8.35221 232.12 8.86491 231.029 9.33691C229.939 9.79264 229.239 10.0205 228.93 10.0205C228.083 10.0205 227.66 9.74382 227.66 9.19043C227.66 8.62077 228.189 7.94531 229.247 7.16406C230.305 6.38281 231.762 5.6097 233.617 4.84473C235.489 4.07975 237.556 3.37174 239.818 2.7207C244.929 1.25586 250.211 0.523438 255.663 0.523438C261.116 0.523438 265.25 1.37793 268.065 3.08691C270.897 4.77962 272.313 7.02572 272.313 9.8252C272.313 12.6247 270.906 14.9521 268.09 16.8076C265.29 18.6631 261.441 19.6885 256.542 19.8838C259.683 19.9163 262.572 20.6732 265.209 22.1543C266.479 22.8542 267.512 23.7738 268.31 24.9131C269.107 26.0524 269.506 27.3708 269.506 28.8682C269.506 30.3656 269.188 31.7734 268.554 33.0918C267.935 34.3939 267.105 35.4681 266.063 36.3145C265.038 37.1608 263.809 37.8607 262.377 38.4141C259.757 39.4557 256.721 39.9766 253.271 39.9766ZM246.044 20.8115C245.735 21.8369 245.124 23.9121 244.213 27.0371C243.301 30.1458 242.667 32.2292 242.309 33.2871C241.951 34.3288 241.763 34.8659 241.747 34.8984C242.268 34.9635 243.098 34.9961 244.237 34.9961C245.393 34.9961 246.679 34.8415 248.095 34.5322C249.527 34.2067 250.805 33.7184 251.928 33.0674C253.067 32.4163 253.954 31.5374 254.589 30.4307C255.24 29.3239 255.565 27.9811 255.565 26.4023C255.565 24.8236 254.646 23.5133 252.807 22.4717C250.967 21.43 248.713 20.8766 246.044 20.8115ZM281.688 13.8779L292.724 13.6094C293.147 13.6094 293.464 13.7396 293.676 14C293.887 14.2441 293.993 14.6185 293.993 15.123C293.993 15.6113 293.537 16.8971 292.626 18.9805C291.731 21.0475 290.827 23.2529 289.916 25.5967C289.005 27.9242 288.549 29.625 288.549 30.6992C288.549 32.7174 289.623 33.7266 291.771 33.7266C292.797 33.7266 293.92 33.5964 295.141 33.3359C295.531 31.9525 296.182 30.1214 297.094 27.8428C299.405 22.1299 300.797 17.7842 301.269 14.8057C301.35 14.2035 301.781 13.9023 302.562 13.9023C304.923 13.9023 307.405 13.8535 310.009 13.7559C312.613 13.6582 314.11 13.6094 314.501 13.6094C314.908 13.6094 315.217 13.7233 315.429 13.9512C315.657 14.1628 315.771 14.3662 315.771 14.5615C315.771 15.3428 315.266 16.9948 314.257 19.5176C313.248 22.0404 312.239 24.6527 311.229 27.3545C310.22 30.04 309.716 32.0013 309.716 33.2383C309.716 34.4753 310.261 35.0938 311.352 35.0938C312.458 35.0938 313.98 34.8008 315.917 34.2148C317.87 33.6126 319.229 33.0999 319.994 32.6768C320.775 32.2536 321.28 32.042 321.508 32.042C322.126 32.042 322.436 32.335 322.436 32.9209C322.436 33.5068 321.996 34.0684 321.117 34.6055C320.255 35.1263 319.205 35.6634 317.968 36.2168C316.747 36.7539 315.274 37.3236 313.549 37.9258C309.577 39.293 305.533 39.9766 301.415 39.9766C297.297 39.9766 294.978 38.8698 294.457 36.6562C292.878 37.3073 291.584 37.82 290.575 38.1943C289.566 38.5524 288.166 38.9349 286.376 39.3418C284.586 39.765 282.942 39.9766 281.444 39.9766C276.659 39.9766 274.267 38.0234 274.267 34.1172C274.267 32.7663 274.527 31.1305 275.048 29.21C275.569 27.2731 276.146 25.5234 276.781 23.9609C278.458 19.8105 279.296 17.2389 279.296 16.2461C279.296 15.237 279.442 14.5941 279.735 14.3174C280.028 14.0244 280.679 13.8779 281.688 13.8779ZM367.162 32.042C367.895 32.042 368.261 32.3757 368.261 33.043C368.261 33.515 367.919 34.0033 367.235 34.5078C365.412 35.8424 362.686 37.0876 359.057 38.2432C355.443 39.3988 352.286 39.9766 349.584 39.9766C346.882 39.9766 344.888 39.6917 343.603 39.1221C342.333 38.5687 341.454 37.584 340.966 36.168C340.022 37.1283 338.663 38.0072 336.889 38.8047C335.115 39.5859 333.235 39.9766 331.249 39.9766C329.28 39.9766 327.668 39.7975 326.415 39.4395C325.162 39.0977 324.022 38.5687 322.997 37.8525C321.972 37.1364 321.158 36.1598 320.556 34.9229C319.97 33.6696 319.677 32.2129 319.677 30.5527C319.677 28.8926 319.929 27.2406 320.434 25.5967C320.938 23.9528 321.711 22.3822 322.753 20.8848C323.811 19.3711 325.072 18.0365 326.537 16.8809C328.002 15.7253 329.776 14.8057 331.859 14.1221C333.959 13.4385 336.213 13.0967 338.622 13.0967C342.577 13.0967 345.865 14.0814 348.485 16.0508C349.397 10.2565 349.853 6.47233 349.853 4.69824L349.828 3.99023C349.828 3.17643 350.618 2.76953 352.196 2.76953L363.134 3.28223C363.524 3.28223 363.834 3.4043 364.062 3.64844C364.289 3.8763 364.403 4.13672 364.403 4.42969C364.403 6.96875 363.061 12.1771 360.375 20.0547C357.689 27.916 356.347 32.2292 356.347 32.9941C356.347 33.7591 356.452 34.3044 356.664 34.6299C356.892 34.9554 357.356 35.1182 358.056 35.1182C358.756 35.1182 359.96 34.8252 361.669 34.2393C363.378 33.6533 364.664 33.1406 365.526 32.7012C366.389 32.2617 366.934 32.042 367.162 32.042ZM336.913 33.7754C339.973 33.7754 342.528 31.4316 344.579 26.7441C345.751 24.498 346.337 22.5124 346.337 20.7871C346.337 19.8431 346.109 19.1188 345.653 18.6143C345.214 18.1097 344.327 17.8574 342.992 17.8574C341.674 17.8574 340.225 18.4759 338.646 19.7129C337.068 20.9499 335.79 22.5042 334.813 24.376C333.853 26.2314 333.373 27.8997 333.373 29.3809C333.373 30.8457 333.699 31.9443 334.35 32.6768C335.001 33.4092 335.855 33.7754 336.913 33.7754ZM413.012 32.042C413.744 32.042 414.11 32.3757 414.11 33.043C414.11 33.515 413.769 34.0033 413.085 34.5078C411.262 35.8424 408.536 37.0876 404.906 38.2432C401.293 39.3988 398.135 39.9766 395.434 39.9766C392.732 39.9766 390.738 39.6917 389.452 39.1221C388.183 38.5687 387.304 37.584 386.815 36.168C385.871 37.1283 384.512 38.0072 382.738 38.8047C380.964 39.5859 379.084 39.9766 377.099 39.9766C375.129 39.9766 373.518 39.7975 372.265 39.4395C371.011 39.0977 369.872 38.5687 368.847 37.8525C367.821 37.1364 367.007 36.1598 366.405 34.9229C365.819 33.6696 365.526 32.2129 365.526 30.5527C365.526 28.8926 365.779 27.2406 366.283 25.5967C366.788 23.9528 367.561 22.3822 368.603 20.8848C369.66 19.3711 370.922 18.0365 372.387 16.8809C373.852 15.7253 375.626 14.8057 377.709 14.1221C379.809 13.4385 382.063 13.0967 384.472 13.0967C388.427 13.0967 391.715 14.0814 394.335 16.0508C395.246 10.2565 395.702 6.47233 395.702 4.69824L395.678 3.99023C395.678 3.17643 396.467 2.76953 398.046 2.76953L408.983 3.28223C409.374 3.28223 409.683 3.4043 409.911 3.64844C410.139 3.8763 410.253 4.13672 410.253 4.42969C410.253 6.96875 408.91 12.1771 406.225 20.0547C403.539 27.916 402.196 32.2292 402.196 32.9941C402.196 33.7591 402.302 34.3044 402.514 34.6299C402.742 34.9554 403.205 35.1182 403.905 35.1182C404.605 35.1182 405.81 34.8252 407.519 34.2393C409.228 33.6533 410.513 33.1406 411.376 32.7012C412.239 32.2617 412.784 32.042 413.012 32.042ZM382.763 33.7754C385.823 33.7754 388.378 31.4316 390.429 26.7441C391.601 24.498 392.187 22.5124 392.187 20.7871C392.187 19.8431 391.959 19.1188 391.503 18.6143C391.063 18.1097 390.176 17.8574 388.842 17.8574C387.523 17.8574 386.075 18.4759 384.496 19.7129C382.917 20.9499 381.64 22.5042 380.663 24.376C379.703 26.2314 379.223 27.8997 379.223 29.3809C379.223 30.8457 379.548 31.9443 380.199 32.6768C380.85 33.4092 381.705 33.7754 382.763 33.7754ZM459.057 32.042C459.659 32.042 459.96 32.3187 459.96 32.8721C459.96 33.9626 457.877 35.3786 453.71 37.1201C451.106 38.2106 448.241 39.0895 445.116 39.7568C444.726 40.8473 444.376 41.8076 444.066 42.6377C443.757 43.484 443.188 44.4281 442.357 45.4697C441.544 46.5114 440.575 47.3822 439.452 48.082C438.345 48.7819 437.149 49.3678 435.863 49.8398C434.594 50.3281 433.161 50.7025 431.566 50.9629C428.686 51.4512 425.308 51.6953 421.435 51.6953C417.577 51.6953 414.607 51.264 412.523 50.4014C410.44 49.5387 409.398 48.2936 409.398 46.666C409.398 45.722 409.805 44.8675 410.619 44.1025C411.433 43.3376 412.491 42.6947 413.793 42.1738C415.111 41.653 416.788 41.181 418.822 40.7578C422.289 40.0579 426.643 39.4801 431.884 39.0244C432.323 37.5758 432.641 36.3633 432.836 35.3867C428.1 37.1445 423.754 38.0234 419.799 38.0234C414.509 38.0234 411.864 36.2738 411.864 32.7744C411.864 30.3167 412.597 27.2812 414.062 23.668C415.543 20.0384 416.283 17.4912 416.283 16.0264L416.259 15.0986C416.259 14.2848 417.048 13.8779 418.627 13.8779L424.315 13.9756L429.467 13.6094C429.89 13.6094 430.207 13.7396 430.419 14C430.631 14.2441 430.736 14.6836 430.736 15.3184C430.736 15.9368 430.492 17.0273 430.004 18.5898C429.532 20.1361 429.011 21.5846 428.441 22.9355C426.895 26.5651 426.122 29.0065 426.122 30.2598C426.122 30.9759 426.382 31.5212 426.903 31.8955C427.424 32.2699 428.108 32.457 428.954 32.457C430.744 32.457 432.413 31.9606 433.959 30.9678C435.701 26.264 437.304 21.0312 438.769 15.2695C438.915 14.6673 439.346 14.3662 440.062 14.3662C442.423 14.3662 444.953 14.2441 447.655 14C450.357 13.7396 451.903 13.6094 452.294 13.6094C452.701 13.6094 453.018 13.707 453.246 13.9023C453.474 14.0977 453.588 14.2848 453.588 14.4639C453.588 15.1637 451.155 22.4961 446.288 36.4609C448.697 35.8913 450.935 35.2158 453.002 34.4346C455.085 33.637 456.501 33.043 457.25 32.6523C458.015 32.2454 458.617 32.042 459.057 32.042ZM429.784 45.1768C430.256 43.9886 430.663 42.8656 431.005 41.8076C423.681 42.7354 420.019 44.4281 420.019 46.8857C420.019 47.5205 420.344 48.1146 420.995 48.668C421.662 49.2376 422.33 49.5225 422.997 49.5225C424.478 49.5225 425.862 49.14 427.147 48.375C428.433 47.6263 429.312 46.5602 429.784 45.1768Z" fill="#4CDAD3"/>
</svg>
